<?xml version="1.0" encoding="utf-8"?>
<!-- Generator: Adobe Illustrator 24.0.3, SVG Export Plug-In . SVG Version: 6.00 Build 0)  -->
<svg version="1.1" id="Layer_1" xmlns="http://www.w3.org/2000/svg" xmlns:xlink="http://www.w3.org/1999/xlink" x="0px" y="0px"
	 viewBox="0 0 498 498" style="enable-background:new 0 0 498 498;" xml:space="preserve">
<style type="text/css">
	.st0{fill:#333333;}
	.st1{fill:#FEBE10;}
</style>
<path class="st0" d="M378.6,498l14-42H191.8c-17,0-30.8-13.8-30.8-30.8V320h16v105.2c0,8.1,6.6,14.8,14.8,14.8h223l-7.3,22l36.7-22
	h22.1c8.1,0,14.8-6.6,14.8-14.8V294.8c0-8.1-6.6-14.8-14.8-14.8H297v-16h169.2c17,0,30.8,13.8,30.8,30.8v130.5
	c0,17-13.8,30.8-30.8,30.8h-17.7L378.6,498z"/>
<path class="st1" d="M185,184h120v113.2c0,17-13.8,30.8-30.8,30.8H265l16,40l-72-40H31.8C14.8,328,1,314.2,1,297.2V166.8
	c0-17,13.8-30.8,30.8-30.8H169v32L185,184z"/>
<g>
	<path class="st0" d="M378.6,234l14-42H191.8c-17,0-30.8-13.8-30.8-30.8V30.8c0-17,13.8-30.8,30.8-30.8h274.5
		c17,0,30.8,13.8,30.8,30.8v130.5c0,17-13.8,30.8-30.8,30.8h-17.7L378.6,234z M191.8,16c-8.1,0-14.8,6.6-14.8,14.8v130.5
		c0,8.1,6.6,14.8,14.8,14.8h223l-7.3,22l36.7-22h22.1c8.1,0,14.8-6.6,14.8-14.8V30.8c0-8.1-6.6-14.8-14.8-14.8H191.8z"/>
	<rect x="201" y="48" class="st0" width="256" height="16"/>
	<rect x="201" y="88" class="st0" width="256" height="16"/>
	<rect x="201" y="128" class="st0" width="216" height="16"/>
	<rect x="441" y="128" class="st0" width="16" height="16"/>
	<rect x="41" y="184" class="st0" width="104" height="16"/>
	<rect x="41" y="224" class="st0" width="224" height="16"/>
	<rect x="41" y="264" class="st0" width="184" height="16"/>
	<rect x="249" y="264" class="st0" width="16" height="16"/>
	<rect x="329" y="312" class="st0" width="128" height="16"/>
	<rect x="305" y="352" class="st0" width="152" height="16"/>
	<rect x="201" y="392" class="st0" width="216" height="16"/>
	<rect x="441" y="392" class="st0" width="16" height="16"/>
</g>
</svg>
